<?xml version="1.0" encoding="UTF-8" standalone="no"?>
<!-- Created with Inkscape (http://www.inkscape.org/) -->
<svg
   xmlns:dc="http://purl.org/dc/elements/1.1/"
   xmlns:cc="http://web.resource.org/cc/"
   xmlns:rdf="http://www.w3.org/1999/02/22-rdf-syntax-ns#"
   xmlns:svg="http://www.w3.org/2000/svg"
   xmlns="http://www.w3.org/2000/svg"
   xmlns:sodipodi="http://sodipodi.sourceforge.net/DTD/sodipodi-0.dtd"
   xmlns:inkscape="http://www.inkscape.org/namespaces/inkscape"
   width="610.34772"
   height="592.98376"
   id="svg5309"
   sodipodi:version="0.32"
   inkscape:version="0.45.1"
   version="1.0"
   sodipodi:docbase="/Volumes/Storage/nick/Documents/wikipedia/Algeria flag&amp;map"
   sodipodi:docname="Flag and map of Algeria.svg"
   inkscape:output_extension="org.inkscape.output.svg.inkscape">
  <defs
     id="defs5311">
    <pattern
       patternUnits="userSpaceOnUse"
       width="686.34915"
       height="593.6508"
       patternTransform="translate(613.17465,354.90989)"
       id="pattern6395">
      <g
         id="g6347"
         transform="translate(-613.17465,-354.90989)">
        <path
           style="fill:#ffffff"
           d="M 959.20635,354.90989 L 1299.5238,354.90989 L 1299.5238,948.56069 L 959.20635,948.56069 L 959.20635,354.90989 z "
           id="rect6" />
        <path
           style="fill:#008638"
           d="M 613.17465,354.90989 L 960,354.90989 L 960,948.56069 L 613.17465,948.56069 L 613.17465,354.90989 z "
           id="rect8" />
        <path
           style="fill:#ed0000"
           d="M 1089.9038,729.90989 C 1055.9584,788.70509 986.75468,817.37021 921.17717,799.79876 C 855.59964,782.22732 810.00005,722.80074 810.00005,654.90989 C 810.00005,587.01904 855.59964,527.59246 921.17717,510.02101 C 986.75468,492.44957 1055.9584,521.11469 1089.9038,579.90989 C 1058.0575,540.13394 1004.5642,524.80673 956.48591,541.68225 C 908.40758,558.55777 876.22887,603.95589 876.22887,654.90989 C 876.22887,705.86389 908.40758,751.26201 956.48591,768.13753 C 1004.5642,785.01305 1058.0575,769.68584 1089.9038,729.90989"
           id="path12" />
        <path
           style="fill:#ed0000;fill-opacity:1;stroke:none;stroke-width:8;stroke-miterlimit:4;stroke-dashoffset:0;stroke-opacity:1"
           d="M 1043.746,724.75116 L 1012.6127,676.45896 L 959.36141,698.03943 L 995.66931,653.50682 L 958.68951,609.53055 L 1012.2623,630.30008 L 1042.6588,581.54078 L 1039.4607,638.90967 L 1095.2266,652.75103 L 1039.6773,667.43744 L 1043.746,724.75116 z "
           id="path3284" />
      </g>
    </pattern>
  </defs>
  <sodipodi:namedview
     id="base"
     pagecolor="#ffffff"
     bordercolor="#666666"
     borderopacity="1.0"
     gridtolerance="10000"
     guidetolerance="10"
     objecttolerance="10"
     inkscape:pageopacity="0.0"
     inkscape:pageshadow="2"
     inkscape:zoom="0.35"
     inkscape:cx="644.67225"
     inkscape:cy="520"
     inkscape:document-units="px"
     inkscape:current-layer="layer1"
     inkscape:window-width="701"
     inkscape:window-height="581"
     inkscape:window-x="51"
     inkscape:window-y="20" />
  <metadata
     id="metadata5314">
    <rdf:RDF>
      <cc:Work
         rdf:about="">
        <dc:format>image/svg+xml</dc:format>
        <dc:type
           rdf:resource="http://purl.org/dc/dcmitype/StillImage" />
      </cc:Work>
    </rdf:RDF>
  </metadata>
  <g
     inkscape:label="Layer 1"
     inkscape:groupmode="layer"
     id="layer1"
     transform="translate(68.031001,-356.83069)">
    <path
       style="fill:url(#pattern6395);fill-opacity:1;fill-rule:evenodd;stroke:#000000;stroke-width:2.07266617px;stroke-linecap:butt;stroke-linejoin:miter;stroke-opacity:1"
       d="M -66.994668,667.32208 L 216.52335,881.76482 C 216.52335,881.76482 211.36847,877.64093 214.46141,885.88869 C 217.55433,894.13649 229.92603,898.26039 229.92603,898.26039 L 229.92603,903.41528 C 229.92603,903.41528 224.77116,901.35336 231.98798,905.47722 C 239.2048,909.60111 231.98798,916.81794 241.26674,910.63209 C 250.54552,904.44624 249.51455,902.3843 252.60747,908.57015 C 255.70039,914.756 237.14284,907.53917 255.70039,916.81794 C 274.25793,926.09673 281.47478,925.06575 281.47478,925.06575 L 280.44378,937.43745 L 278.38184,942.59231 L 277.35087,948.77814 L 360.85981,933.31355 L 412.40855,882.7958 L 541.28038,788.97709 L 525.81576,763.20274 L 501.07234,758.04786 L 490.76263,763.20274 C 489.38799,762.5154 488.01334,761.8281 486.63873,761.14079 C 480.90409,758.27348 479.42188,749.7311 479.42188,743.61421 C 479.42188,735.46119 472.6344,727.97728 470.14312,722.99473 C 467.83336,718.37519 463.9795,714.79135 461.89533,710.62302 C 458.73123,704.29481 459.59974,705.7018 463.95727,701.34425 C 471.21391,694.08763 475.20682,696.85569 472.20507,684.84865 C 470.92033,679.70964 468.15654,671.74739 467.05021,667.32208 C 465.48913,661.07784 473.1292,660.70887 471.1741,652.88845 C 470.34876,649.58713 465.05187,640.67581 462.92631,635.36186 C 461.21946,631.09478 462.92631,622.57826 462.92631,617.83529 C 462.92631,610.07318 461.49471,606.00856 458.8024,599.27776 C 456.66649,593.93799 455.12679,589.5657 451.58559,584.84411 C 448.32793,580.50059 440.64033,576.59633 450.55461,576.59633 C 453.84543,576.59633 452.07423,575.58323 453.64753,574.53438 L 436.12096,516.79978 L 415.50146,503.39711 L 413.43952,487.9325 L 396.94392,483.80859 L 394.88198,477.62273 C 393.851,475.90446 392.82003,474.18615 391.78905,472.46787 C 389.00106,467.82125 390.22115,459.10805 391.78905,455.97227 C 395.50895,448.53249 398.80805,445.86035 403.12977,441.53864 C 407.42808,437.24031 409.24382,431.37248 411.37757,427.10498 C 414.5011,420.85793 411.30707,414.63929 408.28466,410.60939 C 405.6879,407.14707 407.25366,398.495 407.25366,394.11378 C 407.25366,387.07794 409.66754,383.58594 405.19172,377.61821 C 401.9366,373.27805 409.80383,372.57245 411.37757,366.27747 C 412.84645,360.40197 400.58369,363.04784 395.91294,364.21553 C 390.65591,365.52978 386.69712,359.07639 382.51027,358.02969 C 376.21975,356.45705 372.30522,366.7668 366.01466,368.33942 C 362.21336,369.28976 360.55018,362.5653 358.79786,359.06066 C 356.80081,355.06656 347.24915,367.6182 344.36421,368.33942 C 336.90863,370.20333 331.20957,372.3393 324.77568,375.55626 C 316.25859,379.81481 318.60921,369.58434 310.34205,366.27747 C 305.42705,364.31148 296.52557,368.33942 290.75354,368.33942 C 283.73345,368.33942 277.09085,371.43234 270.13403,371.43234 C 268.5016,371.43234 254.47969,376.1666 251.5765,377.61821 C 242.75212,382.03038 242.27317,384.83012 231.98798,382.77308 C 224.94578,381.36464 213.76259,382.17455 207.24459,383.80404 C 200.61237,385.4621 198.73283,386.12997 193.84191,391.02087 C 190.9911,393.87168 190.4622,400.68203 187.65607,404.42354 C 186.3999,406.09842 173.92276,400.29963 170.12952,400.29963 C 165.03511,400.29963 161.6975,404.51562 157.75781,406.48548 C 151.53256,409.59812 152.26471,416.87979 144.35514,418.85718 C 139.26603,420.12945 134.66174,423.3957 130.95246,427.10498 C 127.18003,430.87739 136.3703,437.39388 135.07635,442.5696 C 133.69301,448.10295 140.0243,451.02066 141.2622,455.97227 C 142.00521,458.94431 139.20024,467.41478 139.20024,472.46787 C 139.20024,480.78962 140.71659,484.5065 143.32415,491.02541 C 143.50466,491.47667 144.01146,491.71271 144.35514,492.05639 C 146.16236,493.86362 151.13356,501.48936 152.60293,504.42807 C 155.26303,509.74828 163.60901,506.22553 153.63391,513.70687 C 149.39709,516.88447 144.63116,517.64203 153.63391,519.89271 C 156.69949,520.6591 141.54177,525.8907 138.16928,525.04758 C 132.5501,523.64279 128.1352,521.95464 121.6737,521.95464 C 113.67924,521.95464 108.91645,520.75042 104.14711,527.10953 C 101.62477,530.47268 89.982747,530.0678 85.589577,532.2644 C 78.920967,535.59871 75.709197,535.18505 79.403742,542.57415 C 82.151712,548.07011 80.990742,546.77917 83.527632,551.85291 C 85.683732,556.16512 85.381872,558.03876 77.341782,558.03876 C 70.825152,558.03876 65.494542,559.57625 61.877172,563.19363 C 58.492542,566.57826 54.180012,568.98409 48.474492,570.41047 C 44.141532,571.49371 40.277292,574.92335 37.133757,582.78215 C 34.791957,588.63671 33.051207,591.02996 24.762072,591.02996 C 12.930972,591.02996 14.184717,587.90444 2.0806171,593.09191 C -3.8539529,595.6353 -1.4155229,598.16613 -11.322033,596.18485 C -17.383563,594.97252 -20.626698,593.1178 -26.786658,599.27776 C -31.458918,603.95001 -33.152613,604.52268 -39.158358,607.52556 C -43.823418,609.8581 -47.347398,611.5907 -50.499093,614.74238 C -53.389188,617.63246 -57.785433,618.9358 -60.808818,621.95919 C -61.496148,622.64651 -62.183448,623.33383 -62.870763,624.02114 L -66.994668,667.32208 z "
       id="path1446" />
  </g>
</svg>
